<?xml version="1.0" standalone="no"?>
<!DOCTYPE svg PUBLIC "-//W3C//DTD SVG 20010904//EN"
 "http://www.w3.org/TR/2001/REC-SVG-20010904/DTD/svg10.dtd">
<svg version="1.0" xmlns="http://www.w3.org/2000/svg"
 width="512.000000pt" height="512.000000pt" viewBox="0 0 512.000000 512.000000"
 preserveAspectRatio="xMidYMid meet">
<metadata>
Created by potrace 1.16, written by Peter Selinger 2001-2019
</metadata>
<g transform="translate(0.000000,512.000000) scale(0.100000,-0.100000)"
fill="#000000" stroke="none">
<path d="M1435 4500 c-538 -114 -954 -563 -1087 -1172 -15 -69 -21 -145 -25
-298 -5 -180 -2 -221 17 -335 101 -607 505 -1081 1040 -1222 71 -19 131 -26
237 -30 l142 -6 3 -311 3 -311 29 -53 c81 -145 262 -208 406 -141 33 16 260
187 560 422 l505 397 158 0 c281 0 474 56 702 205 271 175 483 460 594 795 58
178 72 266 78 490 5 180 2 221 -17 335 -101 606 -499 1075 -1037 1223 l-98 27
-1060 2 c-1009 2 -1064 1 -1150 -17z m2215 -332 c182 -49 328 -135 461 -268
162 -165 279 -385 334 -633 25 -111 31 -380 11 -504 -77 -486 -401 -872 -818
-973 -61 -15 -133 -22 -273 -26 -167 -5 -196 -9 -240 -28 -29 -13 -259 -187
-542 -409 -271 -213 -495 -387 -498 -387 -3 0 -5 128 -5 285 0 333 -5 359 -90
445 -70 69 -122 86 -294 94 -223 11 -361 54 -525 163 -261 174 -452 489 -507
836 -12 76 -15 143 -11 271 4 149 8 186 35 286 52 197 127 348 249 500 138
172 343 305 539 351 104 24 230 27 1139 25 l940 -2 95 -26z"/>
</g>
</svg>
