<?xml version="1.0" standalone="no"?>
<!DOCTYPE svg PUBLIC "-//W3C//DTD SVG 20010904//EN"
 "http://www.w3.org/TR/2001/REC-SVG-20010904/DTD/svg10.dtd">
<svg version="1.0" xmlns="http://www.w3.org/2000/svg"
 width="512.000000pt" height="512.000000pt" viewBox="0 0 512.000000 512.000000"
 preserveAspectRatio="xMidYMid meet">

<g transform="translate(0.000000,512.000000) scale(0.100000,-0.100000)"
fill="#000000" stroke="none">
<path d="M1271 4710 c-329 -42 -611 -180 -847 -415 -206 -205 -333 -439 -396
-728 -19 -89 -22 -130 -22 -317 1 -185 5 -235 27 -360 147 -821 690 -1513
1630 -2077 292 -175 804 -407 897 -408 55 0 228 75 471 205 367 195 684 405
987 656 146 120 429 405 536 539 273 344 444 688 520 1051 122 583 -5 1066
-379 1439 -209 210 -437 333 -735 396 -150 32 -400 32 -550 0 -298 -63 -526
-186 -737 -397 l-113 -112 -112 112 c-270 268 -596 410 -972 421 -72 2 -164 0
-205 -5z m388 -315 c303 -64 553 -234 726 -495 77 -114 108 -140 175 -140 67
0 98 26 175 141 141 213 345 373 576 453 517 177 1067 -25 1349 -494 167 -278
203 -625 104 -1015 -151 -597 -617 -1166 -1359 -1660 -242 -161 -409 -258
-658 -381 l-189 -93 -51 20 c-217 85 -498 225 -721 359 -759 456 -1248 1030
-1416 1664 -50 188 -63 293 -64 501 0 164 2 202 21 277 121 478 486 810 965
878 86 12 277 4 367 -15z"/>
</g>
</svg>
