<?xml version="1.0" standalone="no"?>
<!DOCTYPE svg PUBLIC "-//W3C//DTD SVG 20010904//EN"
 "http://www.w3.org/TR/2001/REC-SVG-20010904/DTD/svg10.dtd">
<svg version="1.0" xmlns="http://www.w3.org/2000/svg"
 width="512.000000pt" height="512.000000pt" viewBox="0 0 512.000000 512.000000"
 preserveAspectRatio="xMidYMid meet">

<g transform="translate(0.000000,512.000000) scale(0.100000,-0.100000)"
fill="#000000" stroke="none">
<path d="M357 4132 c-327 -327 -349 -351 -354 -390 -5 -38 -2 -45 30 -77 29
-29 42 -35 78 -35 43 0 44 1 286 242 l243 242 2 -1419 3 -1420 25 -65 c64
-163 165 -262 339 -329 l66 -26 1005 -3 c719 -2 1016 0 1043 8 41 12 77 58 77
98 0 32 -26 79 -53 94 -17 10 -239 14 -1042 18 l-1020 5 -47 23 c-65 32 -125
94 -156 160 l-27 57 -3 1400 -2 1400 227 -226 c126 -125 239 -234 253 -243 13
-9 42 -16 63 -16 74 0 121 83 86 153 -16 31 -648 665 -681 683 -15 8 -42 14
-60 14 -29 0 -65 -33 -381 -348z"/>
<path d="M1761 4466 c-54 -30 -68 -115 -27 -163 l24 -28 1024 -5 1023 -5 67
-33 c78 -38 129 -94 159 -172 18 -49 19 -93 19 -1442 l0 -1392 -237 236 c-180
178 -246 237 -270 243 -71 15 -143 -56 -128 -128 5 -25 83 -108 348 -373 351
-351 360 -358 425 -346 41 7 708 675 717 719 15 72 -57 143 -128 128 -24 -6
-90 -65 -269 -243 l-237 -236 -3 1410 c-3 1548 2 1424 -64 1559 -63 130 -221
248 -368 274 -95 17 -2044 14 -2075 -3z"/>
</g>
</svg>
