<?xml version="1.0" standalone="no"?>
<!DOCTYPE svg PUBLIC "-//W3C//DTD SVG 20010904//EN"
 "http://www.w3.org/TR/2001/REC-SVG-20010904/DTD/svg10.dtd">
<svg version="1.0" xmlns="http://www.w3.org/2000/svg"
 width="512.000000pt" height="512.000000pt" viewBox="0 0 512.000000 512.000000"
 preserveAspectRatio="xMidYMid meet">

<g transform="translate(0.000000,512.000000) scale(0.100000,-0.100000)"
fill="#000000" stroke="none">
<path d="M769 4597 c-103 -29 -181 -97 -228 -197 -38 -81 -37 -193 2 -272 37
-75 101 -139 171 -169 l56 -24 0 -181 0 -180 -54 -23 c-68 -28 -137 -96 -173
-169 -22 -47 -27 -71 -28 -137 0 -71 4 -88 33 -147 37 -76 92 -130 168 -165
l54 -24 0 -263 0 -263 -64 -32 c-107 -53 -178 -153 -192 -273 -15 -132 76
-287 201 -339 l55 -23 0 -265 0 -266 -56 -24 c-70 -30 -134 -94 -171 -169 -39
-80 -40 -191 -1 -273 36 -79 89 -133 166 -171 59 -29 76 -33 147 -33 98 1 171
30 237 97 73 72 93 125 93 243 0 92 -2 104 -30 153 -36 66 -111 135 -170 158
l-45 17 0 267 0 267 45 17 c59 23 134 92 170 158 28 49 30 61 30 153 0 86 -3
107 -24 150 -33 66 -100 131 -167 162 l-54 24 0 269 0 268 28 7 c80 20 177
117 209 210 25 74 15 196 -22 264 -36 65 -110 134 -170 157 l-45 17 0 182 0
182 45 17 c59 23 134 92 170 158 28 49 30 61 30 153 0 86 -3 107 -24 150 -70
142 -245 223 -392 182z m176 -187 c72 -44 98 -162 52 -231 -35 -53 -82 -79
-140 -79 -116 0 -197 100 -167 210 30 110 158 160 255 100z m-4 -1023 c52 -35
79 -82 79 -139 0 -125 -112 -207 -225 -163 -135 51 -150 232 -25 304 49 29
127 28 171 -2z m8 -1200 c47 -31 71 -80 71 -145 0 -85 -61 -151 -149 -160 -63
-6 -101 9 -145 58 -77 85 -48 211 59 262 52 24 113 19 164 -15z m-8 -1190 c53
-35 79 -82 79 -140 0 -155 -178 -231 -286 -123 -78 78 -61 216 34 266 53 27
130 26 173 -3z"/>
<path d="M4440 2475 l0 -1965 85 0 85 0 0 1965 0 1965 -85 0 -85 0 0 -1965z"/>
<path d="M2390 2220 l0 -1710 85 0 85 0 0 1710 0 1710 -85 0 -85 0 0 -1710z"/>
<path d="M3070 1705 l0 -1195 85 0 85 0 0 1195 0 1195 -85 0 -85 0 0 -1195z"/>
<path d="M3755 2038 c-3 -7 -4 -353 -3 -768 l3 -755 85 0 85 0 0 765 0 765
-83 3 c-60 2 -84 -1 -87 -10z"/>
<path d="M1710 940 l0 -430 85 0 85 0 -2 428 -3 427 -82 3 -83 3 0 -431z"/>
</g>
</svg>
